<?xml version="1.0" standalone="no"?>
<!DOCTYPE svg PUBLIC "-//W3C//DTD SVG 20010904//EN"
 "http://www.w3.org/TR/2001/REC-SVG-20010904/DTD/svg10.dtd">
<svg version="1.0" xmlns="http://www.w3.org/2000/svg"
 width="700.000000pt" height="700.000000pt" viewBox="0 0 700.000000 700.000000"
 preserveAspectRatio="xMidYMid meet">
<metadata>
Created by potrace 1.11, written by Peter Selinger 2001-2013
</metadata>
<g transform="translate(0.000000,700.000000) scale(0.100000,-0.100000)"
fill="#000000" stroke="none">
<path d="M1130 6982 c0 -4 6 -16 14 -27 7 -11 28 -47 46 -80 18 -33 92 -166
165 -295 73 -129 143 -255 157 -280 14 -25 99 -178 190 -340 90 -162 177 -316
191 -342 15 -26 46 -83 70 -125 25 -43 58 -103 75 -133 26 -48 202 -363 542
-970 53 -96 109 -195 122 -220 97 -175 155 -256 239 -336 135 -126 309 -208
494 -233 39 -5 327 -9 640 -10 535 -1 575 0 646 18 200 51 345 164 454 354 31
53 231 387 250 417 23 36 251 419 270 455 6 11 38 65 71 120 106 177 124 236
93 304 -28 62 -79 84 -210 89 -371 14 -972 -266 -1212 -565 -30 -38 -83 -117
-117 -176 -35 -60 -66 -105 -71 -100 -7 7 -104 174 -179 308 -116 207 -310
530 -355 591 -16 23 -37 52 -45 64 -34 51 -193 247 -262 323 -134 148 -289
295 -441 416 -288 229 -710 469 -1022 580 -49 18 -106 39 -125 46 -19 8 -53
19 -75 25 -22 5 -101 25 -175 45 -74 19 -191 44 -260 55 -69 11 -137 22 -152
25 -16 2 -28 1 -28 -3z"/>
<path d="M2355 3862 c-304 -49 -424 -412 -205 -623 84 -82 219 -116 337 -86
124 32 211 113 252 235 59 175 -32 374 -205 447 -41 17 -144 33 -179 27z"/>
<path d="M3435 3400 c-84 -13 -108 -19 -165 -38 -143 -50 -244 -113 -350 -221
-66 -66 -140 -160 -140 -177 0 -3 -8 -18 -18 -32 -11 -15 -35 -56 -54 -92 -40
-75 -311 -560 -338 -605 -10 -16 -29 -51 -44 -77 -29 -53 -45 -83 -149 -268
-39 -69 -81 -145 -95 -170 -14 -25 -139 -248 -277 -496 -139 -248 -267 -478
-285 -510 -18 -32 -61 -108 -95 -169 -34 -60 -77 -137 -95 -170 -139 -249
-200 -359 -200 -362 0 -2 12 -1 28 1 15 3 72 12 127 21 127 20 127 20 205 40
36 8 72 17 80 19 517 125 1056 406 1495 779 91 77 285 266 355 347 30 35 65
75 78 89 128 146 269 355 450 668 83 143 160 276 172 295 11 18 24 42 30 53 5
11 23 43 40 70 16 28 35 62 41 78 13 33 25 34 40 5 84 -163 212 -325 334 -425
135 -110 361 -234 549 -302 210 -76 334 -101 486 -98 102 2 120 5 160 27 52
29 70 59 70 116 0 62 -18 103 -125 284 -54 91 -103 174 -109 185 -7 11 -27 46
-46 78 -19 33 -43 73 -54 90 -221 375 -282 478 -301 507 -12 19 -44 71 -71
115 -110 181 -255 290 -459 342 -39 10 -1205 12 -1270 3z"/>
</g>
</svg>
