<?xml version="1.0" encoding="UTF-8"?>
<!DOCTYPE svg PUBLIC "-//W3C//DTD SVG 1.1//EN" "http://www.w3.org/Graphics/SVG/1.1/DTD/svg11.dtd">
<!-- Creator: CorelDRAW -->
<svg xmlns="http://www.w3.org/2000/svg" xml:space="preserve" width="50.2493mm" height="74.9324mm" style="shape-rendering:geometricPrecision; text-rendering:geometricPrecision; image-rendering:optimizeQuality; fill-rule:evenodd; clip-rule:evenodd"
viewBox="0 0 157.074 234.23"
 xmlns:xlink="http://www.w3.org/1999/xlink">
 <defs>
  <style type="text/css">
   <![CDATA[
    .fil2 {fill:url(#id0)}
    .fil0 {fill:url(#id1)}
    .fil1 {fill:url(#id2)}
   ]]>
  </style>
  <linearGradient id="id0" gradientUnits="userSpaceOnUse" x1="28.7798" y1="117.115" x2="51.3862" y2="117.115">
   <stop offset="0" style="stop-color:#006E34"/>
   <stop offset="1" style="stop-color:#36964E"/>
  </linearGradient>
  <linearGradient id="id1" gradientUnits="userSpaceOnUse" x1="106.272" y1="122.886" x2="161.843" y2="186.158">
   <stop offset="0" style="stop-color:#36964E"/>
   <stop offset="1" style="stop-color:#006E34"/>
  </linearGradient>
  <linearGradient id="id2" gradientUnits="userSpaceOnUse" x1="16.324" y1="232.507" x2="113.73" y2="121.129">
   <stop offset="0" style="stop-color:#AECA53"/>
   <stop offset="1" style="stop-color:#44BD34"/>
  </linearGradient>
 </defs>
 <g id="Layer_x0020_1">
  <metadata id="CorelCorpID_0Corel-Layer"/>
  <g id="_178123472">
   <path id="_178124168" class="fil0" d="M155.467 170.359c-19.298,-34.3688 -1.24629,-3.4291 -21.5677,-37.2018 -4.27059,-7.09702 -14.2859,-11.3323 -25.9092,-11.7236l-5.61379 27.0905c21.8628,39.0861 63.3608,34.3466 53.0907,21.835z"/>
   <path id="_178123808" class="fil1" d="M-0 234.23c19.298,-34.3688 36.6908,-67.3004 57.0125,-101.073 4.27059,-7.09733 14.2859,-11.3323 25.9092,-11.7236 11.9856,-0.403865 41.6225,-2.02776 47.1331,7.99478 -10.3964,-3.84609 -21.6687,6.86789 -26.1584,16.0299 -35.0962,71.6179 -67.3001,80.607 -103.896,88.7721z"/>
   <path id="_178123880" class="fil0" d="M155.467 63.8713c-19.298,34.3688 -1.24629,3.4291 -21.5677,37.2018 -4.27059,7.09702 -14.2859,11.3323 -25.9092,11.7236l-5.61379 -27.0905c21.8628,-39.0861 63.3608,-34.3466 53.0907,-21.835z"/>
   <path id="_178123616" class="fil1" d="M-0 0c19.298,34.3688 36.6908,67.3004 57.0125,101.073 4.27059,7.09733 14.2859,11.3323 25.9092,11.7236 11.9856,0.403865 41.6225,2.02776 47.1331,-7.99478 -10.3964,3.84609 -21.6687,-6.86789 -26.1584,-16.0299 -35.0962,-71.6179 -67.3001,-80.607 -103.896,-88.7721z"/>
   <circle id="_178123520" class="fil2" cx="40.083" cy="117.115" r="11.3032"/>
  </g>
 </g>
</svg>
