<?xml version="1.0" encoding="UTF-8" standalone="no"?>
<svg
   xmlns:dc="http://purl.org/dc/elements/1.1/"
   xmlns:cc="http://creativecommons.org/ns#"
   xmlns:rdf="http://www.w3.org/1999/02/22-rdf-syntax-ns#"
   xmlns:svg="http://www.w3.org/2000/svg"
   xmlns="http://www.w3.org/2000/svg"
   xmlns:sodipodi="http://sodipodi.sourceforge.net/DTD/sodipodi-0.dtd"
   xmlns:inkscape="http://www.inkscape.org/namespaces/inkscape"
   height="110"
   id="Layer_1"
   version="1.1"
   viewBox="0 0 110 110"
   width="110"
   xml:space="preserve"
   sodipodi:docname="venue-1.svg"
   inkscape:version="0.92.2 5c3e80d, 2017-08-06"><metadata
     id="metadata81"><rdf:RDF><cc:Work
         rdf:about=""><dc:format>image/svg+xml</dc:format><dc:type
           rdf:resource="http://purl.org/dc/dcmitype/StillImage" /><dc:title></dc:title></cc:Work></rdf:RDF></metadata><defs
     id="defs79" /><sodipodi:namedview
     pagecolor="#ffffff"
     bordercolor="#666666"
     borderopacity="1"
     objecttolerance="10"
     gridtolerance="10"
     guidetolerance="10"
     inkscape:pageopacity="0"
     inkscape:pageshadow="2"
     inkscape:window-width="1366"
     inkscape:window-height="732"
     id="namedview77"
     showgrid="false"
     inkscape:zoom="0.921875"
     inkscape:cx="-155.0767"
     inkscape:cy="151.5209"
     inkscape:window-x="0"
     inkscape:window-y="0"
     inkscape:window-maximized="1"
     inkscape:current-layer="Layer_1"
     fit-margin-top="0"
     fit-margin-left="0"
     fit-margin-right="0"
     fit-margin-bottom="0" /><g
     id="g74"
     transform="scale(0.21484375)"
     inkscape:export-filename="/home/joaquim/Documents/venue.png"
     inkscape:export-xdpi="90"
     inkscape:export-ydpi="90"><path
       d="M 512,255.997 C 512,114.886 397.421,0 256.196,0 114.569,0 0,114.886 0,255.997 0,397.525 114.569,512 256.196,512 397.421,512 512,397.525 512,255.997 Z"
       style="clip-rule:evenodd;fill:#90dfaa;fill-rule:evenodd"
       id="path2"
       inkscape:connector-curvature="0" /><path
       d="m 256.196,123.621 c -19.094,0 -34.607,-15.502 -34.607,-34.18 0,-19.076 15.514,-34.582 34.607,-34.582 18.702,0 34.211,15.506 34.211,34.582 0,18.678 -15.509,34.18 -34.211,34.18 z m 0,-80.689 c -25.857,0 -46.544,20.667 -46.544,46.509 0,25.445 20.687,46.111 46.544,46.111 25.461,0 46.151,-20.667 46.151,-46.111 0.001,-25.842 -20.69,-46.509 -46.151,-46.509 z"
       style="clip-rule:evenodd;fill:#47413d;fill-rule:evenodd"
       id="path4"
       inkscape:connector-curvature="0" /><path
       d="m 183.398,290.183 v 143.112 h -6.764 c -15.514,0 -29.838,-5.564 -40.979,-15.112 -13.927,-11.529 -22.279,-29.014 -22.279,-48.096 v -71.152 c 0,-4.767 3.583,-8.752 8.752,-8.752 z"
       style="clip-rule:evenodd;fill:#d29362;fill-rule:evenodd"
       id="path6"
       inkscape:connector-curvature="0" /><path
       d="m 399.814,298.935 v 71.152 c 0,19.082 -8.355,36.566 -22.277,48.096 v 0 c -11.144,9.548 -25.465,15.112 -40.979,15.112 h -6.769 V 290.183 h 61.274 c 4.771,0 8.751,3.985 8.751,8.752 z"
       style="clip-rule:evenodd;fill:#d29362;fill-rule:evenodd"
       id="path8"
       inkscape:connector-curvature="0" /><path
       d="M 404.583,301.712 H 107.408 v -29.023 c 0,-7.544 6.367,-13.91 14.321,-13.91 h 268.533 c 7.956,0 14.32,6.366 14.32,13.91 v 29.023 z"
       style="clip-rule:evenodd;fill:#5baa73;fill-rule:evenodd"
       id="path10"
       inkscape:connector-curvature="0" /><rect
       height="5.1599998"
       style="clip-rule:evenodd;fill:#75b198;fill-rule:evenodd"
       width="5.1680002"
       x="399.41501"
       y="301.71201"
       id="rect12" /><path
       d="m 413.737,329.938 v 0 c -5.967,-5.563 -9.154,-13.518 -9.154,-21.464 v -6.763 h -5.168 v 8.751 c 0,8.341 3.179,15.901 9.149,21.858 l 1.191,1.19 c 0.799,0.79 1.991,1.192 3.184,0.79 1.595,-0.788 1.991,-2.776 0.798,-4.362 z"
       style="clip-rule:evenodd;fill:#e08e58;fill-rule:evenodd"
       id="path14"
       inkscape:connector-curvature="0" /><path
       d="m 404.583,308.475 v 0 -17.101 c 3.586,0 6.365,2.794 6.365,6.368 v 4.767 c 0,3.172 -2.779,5.966 -6.365,5.966 z"
       style="clip-rule:evenodd;fill:#883e2d;fill-rule:evenodd"
       id="path16"
       inkscape:connector-curvature="0" /><path
       d="m 107.408,308.475 v 0 -17.101 c -3.577,0 -6.365,2.794 -6.365,6.368 v 4.767 c 0,3.172 2.788,5.966 6.365,5.966 z"
       style="clip-rule:evenodd;fill:#883e2d;fill-rule:evenodd"
       id="path18"
       inkscape:connector-curvature="0" /><path
       d="m 98.26,329.938 v 0 c 5.97,-5.563 9.148,-13.518 9.148,-21.464 v -6.763 h 5.175 v 8.751 c 0,8.341 -3.181,15.901 -9.148,21.858 l -1.192,1.19 c -0.803,0.79 -1.994,1.192 -3.187,0.79 -1.59,-0.788 -1.989,-2.776 -0.796,-4.362 z"
       style="clip-rule:evenodd;fill:#e08e58;fill-rule:evenodd"
       id="path20"
       inkscape:connector-curvature="0" /><path
       d="m 379.921,168.146 v 239.698 c 0,3.574 -0.798,7.166 -2.384,10.338 v 0 c -3.981,9.154 -13.134,15.112 -23.479,15.112 H 157.935 c -10.342,0 -19.49,-5.958 -23.471,-15.112 -1.591,-3.172 -2.385,-6.764 -2.385,-10.338 V 168.146 c 0,-44.127 35.806,-79.896 79.958,-79.896 h 87.918 c 44.161,0 79.966,35.77 79.966,79.896 z"
       style="clip-rule:evenodd;fill:#e6be8b;fill-rule:evenodd"
       id="path22"
       inkscape:connector-curvature="0" /><path
       d="m 379.921,160.599 v 5.957 c 0,3.575 -0.798,7.149 -2.384,10.342 v 0 c -3.981,9.133 -13.134,15.103 -23.479,15.103 H 157.935 c -10.342,0 -19.49,-5.97 -23.471,-15.103 -1.192,-3.192 -2.385,-6.767 -2.385,-10.342 v 0 -5.957 c 0,-44.123 35.806,-79.51 79.958,-79.51 l 87.918,-0.399 c 44.161,0 79.966,35.787 79.966,79.909 z"
       style="clip-rule:evenodd;fill:#5baa73;fill-rule:evenodd"
       id="path24"
       inkscape:connector-curvature="0" /><path
       d="m 372.363,162.982 v 3.18 0.395 0 c -0.398,-42.138 -34.612,-76.322 -76.38,-76.322 h -83.946 c -30.234,0 -56.488,17.49 -68.823,42.935 -1.986,4.368 -3.577,8.341 -4.77,13.119 -1.199,4.368 -2.391,9.134 -2.788,13.916 0.397,-5.576 1.192,-11.135 2.385,-16.299 1.199,-3.985 2.391,-7.958 4.379,-11.533 11.538,-27.031 38.587,-45.713 69.617,-45.713 h 83.946 c 42.163,0 76.38,34.184 76.38,76.322 z"
       style="clip-rule:evenodd;fill:#47413d;fill-rule:evenodd"
       id="path26"
       inkscape:connector-curvature="0" /><path
       d="m 148.389,155.422 -2.391,1.191 c -0.797,0.797 -1.988,0 -2.784,-1.191 l -4.371,-10.325 -0.398,-1.192 2.385,-6.368 8.354,14.709 c 0.397,1.192 0.397,2.782 -0.795,3.176 z"
       style="clip-rule:evenodd;fill:#47413d;fill-rule:evenodd"
       id="path28"
       inkscape:connector-curvature="0" /><path
       d="m 143.214,144.699 1.192,2.382 c 0.398,1.192 0.398,1.989 -0.396,2.383 v 0 c -0.796,0.399 -1.59,0 -2.385,-0.793 l -1.193,-2.383 c -0.396,-1.191 0,-1.984 0.397,-2.383 v 0 c 0.796,-0.41 1.988,0 2.385,0.794 z"
       style="clip-rule:evenodd;fill:#dcdfe1;fill-rule:evenodd"
       id="path30"
       inkscape:connector-curvature="0" /><path
       d="m 197.72,269.517 v 0 c -5.173,0 -9.155,-4.372 -9.155,-9.547 0,-58.835 0,-95.397 0,-154.233 5.969,-1.984 11.939,-3.176 18.703,-3.575 0,60.027 0,97.781 0,157.808 0,5.175 -4.38,9.547 -9.548,9.547 z"
       style="clip-rule:evenodd;fill:#47413d;fill-rule:evenodd"
       id="path32"
       inkscape:connector-curvature="0" /><path
       d="m 312.688,269.517 v 0 c 5.174,0 9.149,-4.372 9.149,-9.547 v -69.16 0 -64.008 c -5.971,-1.59 -12.336,-2.383 -18.696,-2.782 v 66.79 0 69.16 c 10e-4,5.175 4.372,9.547 9.547,9.547 z"
       style="clip-rule:evenodd;fill:#47413d;fill-rule:evenodd"
       id="path34"
       inkscape:connector-curvature="0" /><path
       d="M 209.652,253.614 H 186.18 c -3.583,0 -6.364,-2.777 -6.364,-6.368 v -7.149 c 0,-3.571 2.781,-6.352 6.364,-6.352 h 23.473 c 3.187,0 5.969,2.781 5.969,6.352 v 7.149 c -0.001,3.59 -2.783,6.368 -5.97,6.368 z"
       style="clip-rule:evenodd;fill:#a87e2b;fill-rule:evenodd"
       id="path36"
       inkscape:connector-curvature="0" /><path
       d="M 209.652,250.04 H 186.18 c -3.583,0 -6.364,-2.794 -6.364,-5.97 v -7.544 c 0,-3.192 2.781,-5.974 6.364,-5.974 h 23.473 c 3.187,0 5.969,2.781 5.969,5.974 v 7.544 c -0.001,3.176 -2.783,5.97 -5.97,5.97 z"
       style="clip-rule:evenodd;fill:#e9a820;fill-rule:evenodd"
       id="path38"
       inkscape:connector-curvature="0" /><path
       d="m 213.632,252.028 c -1.994,-0.798 -3.979,-1.192 -5.968,-1.989 h 1.988 c 3.187,0 5.969,-2.794 5.969,-5.97 v 3.176 c 0,2.002 -0.797,3.591 -1.989,4.783 z"
       style="clip-rule:evenodd;fill:#a5762a;fill-rule:evenodd"
       id="path40"
       inkscape:connector-curvature="0" /><path
       d="m 325.818,253.614 h -23.075 c -3.582,0 -6.365,-2.777 -6.365,-6.368 v -7.149 c 0,-3.571 2.783,-6.352 6.365,-6.352 h 23.075 c 3.577,0 6.365,2.781 6.365,6.352 v 7.149 c 0.001,3.59 -2.787,6.368 -6.365,6.368 z"
       style="clip-rule:evenodd;fill:#a87e2b;fill-rule:evenodd"
       id="path42"
       inkscape:connector-curvature="0" /><path
       d="m 325.818,250.04 h -23.075 c -3.582,0 -6.365,-2.794 -6.365,-5.97 v -7.544 c 0,-3.192 2.783,-5.974 6.365,-5.974 h 23.075 c 3.577,0 6.365,2.781 6.365,5.974 v 7.544 c 0.001,3.176 -2.787,5.97 -6.365,5.97 z"
       style="clip-rule:evenodd;fill:#e9a820;fill-rule:evenodd"
       id="path44"
       inkscape:connector-curvature="0" /><path
       d="m 330.189,252.028 c -1.986,-0.798 -3.977,-1.192 -5.966,-1.989 h 1.595 c 3.577,0 6.365,-2.794 6.365,-5.97 v 3.176 c 0.001,2.002 -0.793,3.591 -1.994,4.783 z"
       style="clip-rule:evenodd;fill:#a5762a;fill-rule:evenodd"
       id="path46"
       inkscape:connector-curvature="0" /><path
       d="M 188.564,192.001 V 84.277 c 5.969,-1.603 12.336,-2.794 18.703,-3.188 v 110.912 z"
       style="clip-rule:evenodd;fill:#47413d;fill-rule:evenodd"
       id="path48"
       inkscape:connector-curvature="0" /><path
       d="m 321.838,192.001 v -1.191 0 -106.944 c -5.971,-1.586 -12.336,-2.777 -18.696,-2.777 v 109.721 0 1.191 z"
       style="clip-rule:evenodd;fill:#47413d;fill-rule:evenodd"
       id="path50"
       inkscape:connector-curvature="0" /><path
       d="M 315.074,274.282 H 197.317 c -12.33,0 -22.278,9.942 -22.278,22.269 v 91.03 c 0,12.326 9.948,22.253 22.278,22.253 h 117.757 c 12.331,0 21.879,-9.927 21.879,-22.253 v -91.03 c 0,-12.326 -9.548,-22.269 -21.879,-22.269 z"
       style="clip-rule:evenodd;fill:#d29362;fill-rule:evenodd"
       id="path52"
       inkscape:connector-curvature="0" /><path
       d="m 175.039,370.49 v 17.091 c 0,12.326 9.948,22.253 22.278,22.253 h 117.757 c 12.331,0 21.879,-9.927 21.879,-22.253 v -17.091 0 z"
       style="clip-rule:evenodd;fill:#8e4b3d;fill-rule:evenodd"
       id="path54"
       inkscape:connector-curvature="0" /><path
       d="m 331.789,310.463 v 0 c 0,1.586 -1.6,2.777 -3.191,2.777 h -145.2 c -1.596,0 -2.788,-1.191 -2.788,-2.777 0,-1.988 1.192,-3.18 2.788,-3.18 h 145.199 c 1.592,0 3.192,1.192 3.192,3.18 z"
       style="clip-rule:evenodd;fill:#47413d;fill-rule:evenodd"
       id="path56"
       inkscape:connector-curvature="0" /><path
       d="m 195.329,335.896 h -6.368 c -2.384,0 -4.768,-1.988 -4.37,-4.766 l 1.986,-21.062 v -2.785 h 11.143 v 2.785 l 1.988,21.062 c 0,2.777 -1.988,4.766 -4.379,4.766 z"
       style="clip-rule:evenodd;fill:#47413d;fill-rule:evenodd"
       id="path58"
       inkscape:connector-curvature="0" /><path
       d="m 195.726,313.24 v 5.169 c 0,1.98 -1.589,3.582 -3.577,3.582 v 0 c -1.994,0 -3.584,-1.602 -3.584,-3.582 v -5.169 c 0,-1.979 1.59,-3.574 3.584,-3.574 v 0 c 1.988,0 3.577,1.595 3.577,3.574 z"
       style="clip-rule:evenodd;fill:#dcdfe1;fill-rule:evenodd"
       id="path60"
       inkscape:connector-curvature="0" /><path
       d="m 271.707,401.493 h -31.425 c -2.384,0 -4.77,-1.988 -4.77,-4.766 v -13.123 c 0,-2.391 2.386,-4.379 4.77,-4.379 l 31.425,-0.396 c 2.792,0 4.777,2.385 4.777,4.775 v 13.123 c 0,2.778 -1.985,4.766 -4.777,4.766 z"
       style="clip-rule:evenodd;fill:#e9a820;fill-rule:evenodd"
       id="path62"
       inkscape:connector-curvature="0" /><rect
       height="9.5319996"
       style="clip-rule:evenodd;fill:#fefefe;fill-rule:evenodd"
       width="25.061001"
       x="243.866"
       y="385.198"
       id="rect64" /><polygon
       points="245.458,387.179 267.336,387.179 267.336,394.73 268.927,394.73 268.927,385.198 243.866,385.198 243.866,394.73 245.458,394.73 "
       style="clip-rule:evenodd;fill:#47413d;fill-rule:evenodd"
       id="polygon66" /><path
       d="m 290.407,153.039 v 0 c 0,0.797 -0.789,1.191 -1.587,1.191 h -65.643 c -0.796,0 -1.192,-0.395 -1.192,-1.191 0,-0.793 0.396,-1.586 1.192,-1.586 h 65.643 c 0.798,0 1.587,0.793 1.587,1.586 z"
       style="clip-rule:evenodd;fill:#47413d;fill-rule:evenodd"
       id="path68"
       inkscape:connector-curvature="0" /><path
       d="m 228.749,164.572 h -3.187 c -1.192,0 -1.987,-1.192 -1.987,-2.383 l 1.191,-9.544 v -1.191 h 4.778 v 1.191 l 1.192,9.544 c 0.001,1.191 -0.795,2.383 -1.987,2.383 z"
       style="clip-rule:evenodd;fill:#47413d;fill-rule:evenodd"
       id="path70"
       inkscape:connector-curvature="0" /><path
       d="m 228.749,154.23 v 2.383 c 0,0.797 -0.796,1.59 -1.597,1.59 v 0 c -0.794,0 -1.59,-0.793 -1.59,-1.59 v -2.383 c 0,-0.793 0.796,-1.586 1.59,-1.586 v 0 c 0.801,0.001 1.597,0.794 1.597,1.586 z"
       style="clip-rule:evenodd;fill:#dcdfe1;fill-rule:evenodd"
       id="path72"
       inkscape:connector-curvature="0" /></g></svg>