<?xml version="1.0" encoding="UTF-8" standalone="no"?>
<svg
   xmlns:dc="http://purl.org/dc/elements/1.1/"
   xmlns:cc="http://creativecommons.org/ns#"
   xmlns:rdf="http://www.w3.org/1999/02/22-rdf-syntax-ns#"
   xmlns:svg="http://www.w3.org/2000/svg"
   xmlns="http://www.w3.org/2000/svg"
   xmlns:sodipodi="http://sodipodi.sourceforge.net/DTD/sodipodi-0.dtd"
   xmlns:inkscape="http://www.inkscape.org/namespaces/inkscape"
   height="750"
   version="1.1"
   viewBox="0 0 750 750"
   width="750"
   id="svg126"
   sodipodi:docname="instagram.svg"
   inkscape:export-filename="/home/joaquim/Downloads/phone.png"
   inkscape:export-xdpi="152.39999"
   inkscape:export-ydpi="152.39999"
   inkscape:version="0.92.2 5c3e80d, 2017-08-06">
  <metadata
     id="metadata130">
    <rdf:RDF>
      <cc:Work
         rdf:about="">
        <dc:format>image/svg+xml</dc:format>
        <dc:type
           rdf:resource="http://purl.org/dc/dcmitype/StillImage" />
        <dc:title></dc:title>
      </cc:Work>
    </rdf:RDF>
  </metadata>
  <sodipodi:namedview
     pagecolor="#ffffff"
     bordercolor="#666666"
     borderopacity="1"
     objecttolerance="10"
     gridtolerance="10"
     guidetolerance="10"
     inkscape:pageopacity="0"
     inkscape:pageshadow="2"
     inkscape:window-width="1366"
     inkscape:window-height="709"
     id="namedview128"
     showgrid="false"
     fit-margin-top="0"
     fit-margin-left="0"
     fit-margin-right="0"
     fit-margin-bottom="0"
     inkscape:zoom="0.49166666"
     inkscape:cx="23.14884"
     inkscape:cy="367.54114"
     inkscape:window-x="0"
     inkscape:window-y="0"
     inkscape:window-maximized="1"
     inkscape:current-layer="whatsapp"
     inkscape:pagecheckerboard="true" />
  <defs
     id="defs118" />
  <g
     id="black"
     style="fill:none;fill-rule:evenodd;stroke:none;stroke-width:1"
     transform="translate(176.94921,603.55932)">
    <g
       id="whatsapp">
      <g
         id="g2602"
         transform="matrix(7.4999999,0,0,7.4999999,1150.1694,-951.8644)"
         style="fill:#ffffff;fill-opacity:1">
        <g
           transform="matrix(1.6666667,0,0,1.6666667,-176.94915,46.440678)"
           id="g3669"
           style="fill:#ffffff;fill-opacity:1">
          <path
             style="fill:#ffffff;fill-opacity:1;stroke-width:12.5"
             d="M 375 0 C 167.89321 0 0 167.89321 0 375 C 0 582.10679 167.89321 750 375 750 C 582.10679 750 750 582.10679 750 375 C 750 167.89321 582.10679 0 375 0 z M 375 143.85156 C 437.77563 143.85156 445.64832 144.11728 470.30273 145.24219 C 494.90577 146.36434 511.70743 150.27278 526.41016 155.98633 C 541.6102 161.89348 554.50239 169.79628 567.35352 182.64648 C 580.20372 195.49761 588.10652 208.3898 594.01367 223.58984 C 599.72722 238.29257 603.63566 255.09423 604.75781 279.69727 C 605.88272 304.35168 606.14844 312.22345 606.14844 375 C 606.14844 437.77563 605.88272 445.64832 604.75781 470.30273 C 603.63566 494.90577 599.72722 511.70752 594.01367 526.41016 C 588.10652 541.6102 580.20372 554.50248 567.35352 567.35352 C 554.50239 580.20372 541.6102 588.10661 526.41016 594.01367 C 511.70743 599.72717 494.90577 603.63562 470.30273 604.75781 C 445.64832 605.88253 437.77563 606.14844 375 606.14844 C 312.22345 606.14844 304.35168 605.88253 279.69727 604.75781 C 255.09423 603.63562 238.2909 599.72717 223.58789 594.01367 C 208.38785 588.10661 195.4991 580.20372 182.64844 567.35352 C 169.79814 554.50248 161.89339 541.6102 155.98633 526.41016 C 150.27246 511.70752 146.3651 494.90577 145.24219 470.30273 C 144.11747 445.64832 143.85156 437.77563 143.85156 375 C 143.85156 312.22345 144.11747 304.35168 145.24219 279.69727 C 146.3651 255.09423 150.27246 238.29257 155.98633 223.58984 C 161.89339 208.3898 169.79814 195.49761 182.64844 182.64648 C 195.4991 169.79628 208.38785 161.89348 223.58789 155.98633 C 238.2909 150.27278 255.09423 146.36434 279.69727 145.24219 C 304.35168 144.11728 312.22345 143.85156 375 143.85156 z M 375 185.5 C 313.28047 185.5 305.96935 185.73559 281.5957 186.84766 C 259.05898 187.87531 246.82082 191.64111 238.67578 194.80664 C 227.88629 198.99982 220.18636 204.00859 212.09766 212.09766 C 204.00932 220.18581 198.99973 227.88638 194.80664 238.67578 C 191.64111 246.82082 187.87595 259.05898 186.84766 281.5957 C 185.7355 305.96935 185.5 313.28047 185.5 375 C 185.5 436.71862 185.7355 444.03065 186.84766 468.4043 C 187.87595 490.94102 191.64111 503.17918 194.80664 511.32422 C 198.99973 522.11371 204.00932 529.81401 212.09766 537.90234 C 220.18599 545.99141 227.88629 551.00027 238.67578 555.19336 C 246.82082 558.35889 259.05898 562.12479 281.5957 563.15234 C 305.9666 564.26459 313.27588 564.5 375 564.5 C 436.72321 564.5 444.03432 564.26459 468.4043 563.15234 C 490.94102 562.12479 503.17918 558.35889 511.32422 555.19336 C 522.11362 551.00027 529.81419 545.99141 537.90234 537.90234 C 545.99141 529.81401 551.00018 522.11371 555.19336 511.32422 C 558.35889 503.17918 562.12469 490.94102 563.15234 468.4043 C 564.26441 444.03065 564.5 436.71862 564.5 375 C 564.5 313.28047 564.26441 305.96935 563.15234 281.5957 C 562.12469 259.05898 558.35889 246.82082 555.19336 238.67578 C 551.00018 227.88638 545.99141 220.18673 537.90234 212.09766 C 529.81419 204.0095 522.11362 198.99982 511.32422 194.80664 C 503.17918 191.64111 490.94102 187.87531 468.4043 186.84766 C 444.03065 185.73559 436.71862 185.5 375 185.5 z M 498.38672 223.875 C 513.70604 223.875 526.125 236.29396 526.125 251.61328 C 526.125 266.9326 513.70604 279.34961 498.38672 279.34961 C 483.06832 279.34961 470.65039 266.9326 470.65039 251.61328 C 470.65039 236.29396 483.06832 223.875 498.38672 223.875 z M 375 256.30273 C 440.55487 256.30273 493.69727 309.44421 493.69727 375 C 493.69727 440.55487 440.55487 493.69727 375 493.69727 C 309.44421 493.69727 256.30273 440.55487 256.30273 375 C 256.30273 309.44421 309.44421 256.30273 375 256.30273 z M 375 297.95117 C 332.44613 297.95117 297.95117 332.44613 297.95117 375 C 297.95117 417.55295 332.44613 452.04883 375 452.04883 C 417.55295 452.04883 452.04883 417.55295 452.04883 375 C 452.04883 332.44613 417.55295 297.95117 375 297.95117 z "
             transform="scale(0.08)"
             id="path120" />
        </g>
      </g>
      <g
         id="g12"
         transform="matrix(0.09175443,0,0,-0.09175443,-33.097424,2.5889017)" />
    </g>
  </g>
</svg>
