<?xml version="1.0" encoding="UTF-8" standalone="no"?>
<svg
   xmlns:dc="http://purl.org/dc/elements/1.1/"
   xmlns:cc="http://creativecommons.org/ns#"
   xmlns:rdf="http://www.w3.org/1999/02/22-rdf-syntax-ns#"
   xmlns:svg="http://www.w3.org/2000/svg"
   xmlns="http://www.w3.org/2000/svg"
   xmlns:sodipodi="http://sodipodi.sourceforge.net/DTD/sodipodi-0.dtd"
   xmlns:inkscape="http://www.inkscape.org/namespaces/inkscape"
   height="750"
   version="1.1"
   viewBox="0 0 750 750"
   width="750"
   id="svg126"
   sodipodi:docname="book-web.svg"
   inkscape:export-filename="/home/joaquim/Downloads/web.png"
   inkscape:export-xdpi="152.39999"
   inkscape:export-ydpi="152.39999"
   inkscape:version="0.92.2 5c3e80d, 2017-08-06">
  <metadata
     id="metadata130">
    <rdf:RDF>
      <cc:Work
         rdf:about="">
        <dc:format>image/svg+xml</dc:format>
        <dc:type
           rdf:resource="http://purl.org/dc/dcmitype/StillImage" />
        <dc:title></dc:title>
      </cc:Work>
    </rdf:RDF>
  </metadata>
  <sodipodi:namedview
     pagecolor="#ffffff"
     bordercolor="#666666"
     borderopacity="1"
     objecttolerance="10"
     gridtolerance="10"
     guidetolerance="10"
     inkscape:pageopacity="0"
     inkscape:pageshadow="2"
     inkscape:window-width="1366"
     inkscape:window-height="709"
     id="namedview128"
     showgrid="false"
     fit-margin-top="0"
     fit-margin-left="0"
     fit-margin-right="0"
     fit-margin-bottom="0"
     inkscape:zoom="0.49166666"
     inkscape:cx="296.37276"
     inkscape:cy="303.14188"
     inkscape:window-x="0"
     inkscape:window-y="0"
     inkscape:window-maximized="1"
     inkscape:current-layer="g3669"
     inkscape:pagecheckerboard="true" />
  <defs
     id="defs118" />
  <g
     id="black"
     style="fill:none;fill-rule:evenodd;stroke:none;stroke-width:1"
     transform="translate(176.94915,603.55932)">
    <g
       id="whatsapp">
      <g
         id="g3669"
         transform="matrix(1.6666667,0,0,1.6666667,-176.94915,46.440678)"
         style="fill:#ffffff;fill-opacity:1"
         inkscape:export-filename="/home/archaeoz/web.png"
         inkscape:export-xdpi="152.39999"
         inkscape:export-ydpi="152.39999">
        <path
           style="fill:#ffffff;fill-opacity:1;stroke-width:7.5"
           d="M 225,-389.99999 C 100.73592,-389.99999 0,-289.26407 0,-165 0,-40.735923 100.73592,59.999999 225,59.999999 349.26407,59.999999 449.99999,-40.735923 449.99999,-165 449.99999,-289.26407 349.26407,-389.99999 225,-389.99999 Z m 54.94042,80.65722 c 17.91711,4.92935 32.94984,13.07299 45.43946,23.02735 -0.98334,-7.8898 -1.64356,-11.5752 -1.64356,-11.5752 0,0 0.11208,0.0596 0.29883,0.18457 1.65541,0.84382 13.5937,7.24219 21.55078,19.89844 -0.58419,-3.20668 -0.93164,-5.02735 -0.93164,-5.02735 0,0 0.16609,0.13198 0.44824,0.38673 -0.086,-0.0947 -0.1518,-0.18657 -0.2373,-0.28125 3.83543,2.65398 8.70599,8.15428 13.13086,15.37206 3.41976,5.20494 6.92868,11.74079 9.74707,19.59082 5.9423,16.44822 7.21711,34.2354 5.3789,51.31055 3.39136,-11.44499 5.97877,-19.24304 6.14356,-19.74023 -0.003,-0.009 0.003,-0.0257 0,-0.0352 h 0.0176 c 0,0 0.22995,0.6788 0.58887,1.87207 0.12591,0.39776 0.27617,0.77998 0.39551,1.17773 9.42401,31.22301 -1.89125,66.79419 -11.6543,85.25391 2.16011,3.60445 2.32397,8.83812 0.62403,14.7041 -0.035,0.20713 -0.0677,0.40598 -0.10547,0.61523 0.67335,-1.75675 1.09761,-3.55274 1.22168,-5.37011 -0.42049,7.85569 -2.73189,14.96693 -6.16113,21.331051 -0.0113,0.02115 -0.008,0.03473 -0.0176,0.05273 -0.009,0.0207 -0.0367,0.04352 -0.0439,0.06152 -1.70277,3.20382 -3.90869,6.654591 -6.83789,10.204101 -0.37351,0.46197 -0.78446,0.900859 -1.16894,1.353514 -0.26045,0.30591 -0.5092,0.603774 -0.77344,0.905274 -6.9475,7.94187 -15.21865,14.323194 -22.13965,19.019534 -3.06459,2.0731 -6.03411,3.882662 -9.00879,5.414057 v -0.03515 l -0.0176,0.01758 c -0.009,0.0378 -0.0262,0.06068 -0.0352,0.09668 0.10035,-0.05895 0.14062,-0.09668 0.14062,-0.09668 -1.35238,5.04963 -5.49147,10.646933 -11.8916,15.424808 -25.69131,20.282939 -72.48404,19.914452 -82.30957,19.643552 -0.0378,-0.0378 -0.0607,-0.06089 -0.0967,-0.08789 -1.38375,-0.04005 -2.16211,-0.0791 -2.16211,-0.0791 0,0 0.61081,1.448608 3.16406,2.680663 0.0891,0 0.18742,0.01569 0.27247,0.01758 0.82768,0.45225 1.98713,0.843147 3.39257,1.168947 0.15165,0.0288 0.28511,0.06968 0.43946,0.09668 0.13545,0.0288 0.26389,0.06089 0.40429,0.08789 -14.78236,0.539865 -33.63938,-4.240035 -41.93261,-6.583005 -0.018,-0.009 -0.0262,-0.0086 -0.0352,-0.01758 -2.80233,-0.79101 -4.45605,-1.327144 -4.45605,-1.327144 0,0 1.54125,1.427652 4.30664,3.084957 0.18369,0.05085 0.3789,0.102163 0.5625,0.149418 2.0731,1.26243 4.86677,2.61405 8.1123,3.515625 -0.35595,-0.07965 -0.71902,-0.161046 -1.07227,-0.246096 0.26137,0.08235 0.53071,0.170046 0.79981,0.246096 C 130.48432,-37.922713 102.08272,-80.831836 91.265623,-99.310546 77.256988,-123.31134 72.872625,-145.3739 71.82422,-163.47949 c -1.00103,4.60832 -1.693769,8.62395 -2.144534,11.56641 0.018,0.32445 0.01716,0.63041 0.03516,0.95801 -0.36185,2.34298 -0.536135,3.87677 -0.536135,4.23632 -0.07695,-0.30303 -0.08595,-0.55281 -0.08789,-0.83496 -0.0189,0.45077 -0.09668,0.77144 -0.09668,0.93164 -0.018,-0.23584 -0.02615,-0.46957 -0.03515,-0.70312 -0.0207,0.189 -0.05252,0.33682 -0.06152,0.42187 -1.772865,-26.85916 1.17095,-44.89909 4.86914,-56.63671 -2.8638,5.21156 -4.891464,10.02831 -6.108399,13.19238 -0.06165,0.33496 -0.144999,0.65413 -0.202149,0.99316 -0.63207,1.80222 -0.975582,2.79492 -0.975582,2.79492 0.08955,-0.27085 0.08962,-0.63536 0.184567,-0.90527 -0.27,0.63142 -0.377928,1.00195 -0.377928,1.00195 0.009,-0.0701 0.03494,-0.15273 0.04394,-0.22851 -0.027,0.0824 -0.04394,0.13183 -0.04394,0.13183 0.04635,-0.26612 0.102164,-0.52776 0.149414,-0.79101 -0.1557,0.44035 -0.237303,0.70312 -0.237303,0.70312 3.875305,-21.81509 8.662752,-35.8873 13.350581,-44.99121 0.99063,-2.25112 3.402743,-6.74948 7.268558,-12.05859 -0.0288,0.0284 -0.04331,0.0507 -0.07031,0.0791 -0.33435,-0.87033 -0.573219,-5.38907 -0.228519,-11.41699 0.16668,-6.53553 1.054985,-11.95167 1.942385,-16.25977 0.901575,-3.87624 1.903743,-7.30855 3.076173,-10.2832 0.0288,-0.0909 0.04331,0.0359 0.07031,0.2461 0.0288,-0.0786 0.06968,-0.17032 0.09668,-0.2461 h 0.09668 c 0.0477,0 0.08768,0.0561 0.09668,0.13184 0.04005,-0.10513 0.0611,0.12122 0.0791,0.50097 0.244395,-1.09004 0.639351,-1.83281 0.922851,-2.8916 0.450765,-1.80317 1.878291,-3.4284 2.329101,-4.4209 0.027,-0.0852 0.018,0.15155 0,0.50098 0.10755,-0.17712 0.2151,-0.35041 0.28125,-0.50098 0.01647,-0.0493 0.02136,0.0206 0.01758,0.14942 0.0288,-0.0455 0.05231,-0.10208 0.07031,-0.14942 0.045,-0.13827 -0.0055,0.58849 -0.05274,1.26563 0.19791,-0.5294 0.428598,-1.1643 0.685548,-1.98633 2.52477,-8.1133 6.486321,-10.35351 6.486321,-10.35351 0,0.0559 0.0138,0.11015 0.0176,0.16699 0.1602,-0.10985 0.26367,-0.16699 0.26367,-0.16699 9.5e-4,0.019 -9.9e-4,0.0338 0,0.0527 0.058,-0.0379 0.0791,-0.0527 0.0791,-0.0527 0.26798,5.17652 2.22136,12.46939 4.62305,16.81347 0.11925,-0.34948 0.19643,-0.92695 0.42188,-0.58887 0.009,0.009 0.009,0.0257 0.0176,0.0352 0.0482,-0.10584 0.11842,-0.1616 0.18457,-0.11426 0.0463,-0.0331 0.10085,-0.0203 0.167,0.0791 3.8592,6.21448 8.89629,11.04442 12.30468,13.81641 6.44936,-2.0262 13.64574,-3.06557 21.67383,-2.66309 4.40374,0.19699 9.31198,0.83058 14.65137,2.16212 0.027,-0.0285 0.0351,-0.0527 0.0351,-0.0527 1.35239,-1.80317 2.88955,-3.51658 4.4209,-4.95703 0.0934,0.72164 0.0967,1.07322 0.0967,1.79297 1.35243,-3.1546 6.84272,-7.39785 9.09668,-8.56934 -0.0924,0.63215 -0.0967,0.99939 -0.0967,1.4502 4.77684,-3.33548 10.46339,-6.48681 15.24023,-7.56739 0.70556,-0.089 -2.11422,1.28766 -3.08496,2.27637 0.1332,-0.0531 0.25212,-0.11161 0.35157,-0.14941 2.04178,-1.03133 3.00804,-1.56249 7.15429,-2.40821 4.32594,-0.90158 9.47092,0.46119 8.56934,1.00196 -0.72166,0.36082 -4.60657,2.25416 -5.23828,2.79492 -0.54072,0.45081 2.16764,-0.26624 1.62598,0.18457 -9.1049,7.48163 -14.95807,16.65684 -17.8418,27.20214 0.0288,0.0739 0.0609,0.17032 0.0879,0.2461 0.0288,-0.10899 0.0697,-0.22509 0.0967,-0.33399 1.62229,3.69631 6.30702,12.45211 16.3125,12.35743 6.88216,-0.0511 11.97106,0.076 15.74121,0.35156 4.4833,-0.035 7.01265,0.48639 9.86132,1.17774 3.60541,1.35237 2.33837,7.6585 1.25684,10.3623 -1.08247,2.61383 -2.15492,4.43404 -4.58789,6.32812 0.0288,-0.0767 0.0697,-0.18657 0.0967,-0.28125 -0.37026,0.43848 -0.82844,0.94904 -1.37109,1.53809 -4.23612,4.50508 -23.06715,13.24042 -27.85254,19.01074 -0.0198,0.17986 -0.0657,0.19136 -0.13184,0.0967 -0.0981,0.0189 -0.18632,-0.092 -0.29882,-0.31641 0,0.0189 -0.0138,0.0251 -0.0176,0.044 0.36054,0.81162 0.73195,1.53506 1.00195,2.34668 -0.99166,-0.812 -1.81724,-0.45542 -1.18652,0.53613 0.72189,1.17244 0.6458,1.88938 1.18652,5.04493 0.63077,4.41699 -0.36356,6.94308 -0.90527,9.37792 -1.6223,-0.99155 -3.16313,-1.70924 -4.60547,-2.25 h -0.0967 c 2.70472,1.62323 3.71145,3.34288 3.98145,3.97266 0.63171,1.35286 0,1.79297 0,1.79297 0,0 -0.90552,-1.4435 -3.7002,-2.79492 -1.98311,-1.08247 -6.04549,-2.5236 -7.84864,-3.15528 -0.18,0.09 -0.26035,0.0899 -0.43945,0.18457 0.62978,0.81162 1.6084,2.34668 1.6084,2.34668 0,0 -1.35256,-0.72647 -3.51562,-1.53808 -0.18275,0.1013 -0.35974,0.2222 -0.53614,0.33398 -1.4935,1.06542 -3.74598,3.71219 -4.58789,6.69727 -1.08054,3.78531 -3.06235,11.18124 5.58985,18.84375 0.0378,0.0288 0.0607,0.0697 0.0967,0.0967 1.90921,1.69042 4.34261,3.45616 7.4707,5.30859 0.27085,0.17779 -2.34602,-0.45066 -2.07422,-0.27246 1.44234,0.99162 7.03395,3.52093 10.09863,4.69336 1.08149,0.62977 -3.25036,-0.54077 -2.25879,0 0.99248,0.54058 1.98707,0.99261 2.9795,1.35351 16.04574,6.31015 25.69565,-2.79215 37.14257,-5.67773 14.87421,-3.69445 25.86807,3.24406 30.375,8.47266 4.50702,5.2277 0.62686,10.98904 -5.1416,9.72949 -0.60606,-0.1485 -1.22755,-0.18835 -1.85449,-0.18457 -5.21915,0.51327 -14.55626,7.12012 -21.2168,11.72461 -1.37412,0.94329 -2.87746,1.81862 -4.49121,2.61035 -11.07945,5.53639 -27.42676,7.49874 -42.93457,3.70019 4.32608,4.05527 11.8263,12.18021 17.5957,13.9834 6.58004,2.07405 15.85731,1.25127 19.64356,5.39649 -3.78625,-2.25329 -8.8374,-1.07846 -12.17285,-0.72071 22.98658,11.539714 40.20555,8.382631 44.26172,7.751956 9.91557,-1.53423 14.32783,-4.766916 16.04003,-6.029296 -0.36081,2.4358 -1.97309,4.862446 -3.86718,5.493161 2.07306,1.442345 6.12201,-3.692051 10.53808,-8.288081 1.17149,-1.26333 2.4341,-2.35038 3.51563,-3.25196 0.17995,-0.089 -2.06086,2.96614 -1.88086,2.78614 1.26333,-0.99153 2.23146,-1.96733 2.95312,-3.04981 1.8941,-2.61288 4.79005,-3.60351 4.79005,-3.60351 0.54314,1.35148 0.27757,3.32742 0.0967,5.30859 0,0 0.0481,0.0343 0.11426,0.0703 0.0207,-0.0846 0.0347,-0.16983 0.0527,-0.25488 0.79556,0.5805 1.90354,0.75119 3.22559,0.36914 3.62718,-1.25766 9.32535,-6.57765 14.90625,-18.84375 9.01413,-19.832 9.54492,-33.70605 9.54492,-33.70605 0.0396,0.0905 0.10217,0.20387 0.14942,0.29882 0.0321,-0.30514 0.0351,-0.48339 0.0351,-0.48339 0,0 2.1735,3.91369 3.82325,10.95117 1.46506,-5.6207 3.13413,-11.00872 3.86718,-20.31153 0.15075,-2.0106 0.26784,-4.02629 0.33399,-6.02929 0.25569,-8.93534 -0.26424,-20.98836 -2.16211,-38.34668 0.0707,0.0596 0.15357,0.14465 0.21972,0.21094 -0.009,-0.12686 -0.0262,-0.25103 -0.0352,-0.37793 0,0 8.16286,6.2648 14.20312,21.40136 1.86093,-44.50431 -20.49201,-73.8972 -33.86425,-83.88281 9.10485,0.72165 22.45442,9.01866 30.29589,17.042 -6.84994,-14.60338 -17.75993,-31.00858 -47.05663,-50.29981 z"
           id="path120"
           inkscape:connector-curvature="0" />
      </g>
    </g>
  </g>
</svg>
