<?xml version="1.0" encoding="UTF-8" standalone="no"?>
<svg
   xmlns:dc="http://purl.org/dc/elements/1.1/"
   xmlns:cc="http://creativecommons.org/ns#"
   xmlns:rdf="http://www.w3.org/1999/02/22-rdf-syntax-ns#"
   xmlns:svg="http://www.w3.org/2000/svg"
   xmlns="http://www.w3.org/2000/svg"
   xmlns:sodipodi="http://sodipodi.sourceforge.net/DTD/sodipodi-0.dtd"
   xmlns:inkscape="http://www.inkscape.org/namespaces/inkscape"
   height="750"
   version="1.1"
   viewBox="0 0 750 750"
   width="750"
   id="svg126"
   sodipodi:docname="twitter.svg"
   inkscape:export-filename="/home/joaquim/Downloads/whatsapp.png"
   inkscape:export-xdpi="152.39999"
   inkscape:export-ydpi="152.39999"
   inkscape:version="0.92.2 5c3e80d, 2017-08-06">
  <metadata
     id="metadata130">
    <rdf:RDF>
      <cc:Work
         rdf:about="">
        <dc:format>image/svg+xml</dc:format>
        <dc:type
           rdf:resource="http://purl.org/dc/dcmitype/StillImage" />
        <dc:title></dc:title>
      </cc:Work>
    </rdf:RDF>
  </metadata>
  <sodipodi:namedview
     pagecolor="#ffffff"
     bordercolor="#666666"
     borderopacity="1"
     objecttolerance="10"
     gridtolerance="10"
     guidetolerance="10"
     inkscape:pageopacity="0"
     inkscape:pageshadow="2"
     inkscape:window-width="1366"
     inkscape:window-height="709"
     id="namedview128"
     showgrid="false"
     fit-margin-top="0"
     fit-margin-left="0"
     fit-margin-right="0"
     fit-margin-bottom="0"
     inkscape:zoom="0.49166667"
     inkscape:cx="280.07253"
     inkscape:cy="322.89447"
     inkscape:window-x="0"
     inkscape:window-y="0"
     inkscape:window-maximized="1"
     inkscape:current-layer="whatsapp"
     inkscape:measure-start="0,0"
     inkscape:measure-end="0,0"
     inkscape:pagecheckerboard="true" />
  <defs
     id="defs118" />
  <g
     id="black"
     style="fill:none;fill-rule:evenodd;stroke:none;stroke-width:1"
     transform="translate(176.94915,603.55932)">
    <g
       id="whatsapp">
      <g
         id="g3669"
         transform="matrix(1.6666667,0,0,1.6666667,-176.94915,46.440678)">
        <path
           style="fill:#ffffff;fill-opacity:1;stroke-width:7.5"
           d="M 225,-389.99999 C 100.73592,-389.99999 0,-289.26407 0,-165 0,-40.735923 100.73592,59.999999 225,59.999999 349.26407,59.999999 449.99999,-40.735923 449.99999,-165 449.99999,-289.26407 349.26407,-389.99999 225,-389.99999 Z m 54.65038,109.53808 c 16.77775,0 31.92219,7.07856 42.55664,18.4043 13.27351,-2.61297 25.75466,-7.4592 37.01954,-14.14161 -4.36074,13.62133 -13.59894,25.03426 -25.6377,32.24708 11.79094,-1.39996 23.03447,-4.54114 33.48633,-9.17578 -7.81281,11.69094 -17.69215,21.95571 -29.0918,30.17285 0.11304,2.49557 0.16699,5.015 0.16699,7.54101 0,77.04547 -58.63568,165.875975 -165.86718,165.875975 -32.92073,0 -63.57223,-9.644085 -89.358399,-26.191404 4.552038,0.543461 9.200003,0.81738 13.89551,0.81738 27.320899,0 52.457169,-9.322285 72.413089,-24.960937 -25.51661,-0.473904 -47.03987,-17.326604 -54.45704,-40.482424 3.55642,0.67825 7.20365,1.03711 10.96875,1.03711 5.30854,0 10.46769,-0.70876 15.3545,-2.04785 -26.66441,-5.35201 -46.766602,-28.90831 -46.766602,-57.15527 0,-0.24347 -0.0044,-0.49046 0,-0.73828 7.856282,4.37813 16.850462,6.99493 26.402342,7.29492 -15.63431,-10.45185 -25.927736,-28.30329 -25.927736,-48.52441 0,-10.68228 2.875342,-20.7031 7.892576,-29.31152 28.75564,35.28152 71.71337,58.49541 120.16407,60.92577 -0.99998,-4.26943 -1.52051,-8.71963 -1.52051,-13.28906 0,-32.19032 26.11632,-58.29785 58.30663,-58.29785 z"
           id="path120"
           inkscape:connector-curvature="0" />
        <g
           id="g1951"
           transform="translate(-3.6675897,-0.9234689)" />
      </g>
      <g
         transform="matrix(0.96615402,0,0,0.96615402,-182.77546,37.905754)"
         id="g6"
         style="fill:#ffffff" />
    </g>
  </g>
</svg>
