<?xml version="1.0" encoding="UTF-8" standalone="no"?>
<!-- Created with Inkscape (http://www.inkscape.org/) -->

<svg
   xmlns:dc="http://purl.org/dc/elements/1.1/"
   xmlns:cc="http://creativecommons.org/ns#"
   xmlns:rdf="http://www.w3.org/1999/02/22-rdf-syntax-ns#"
   xmlns:svg="http://www.w3.org/2000/svg"
   xmlns="http://www.w3.org/2000/svg"
   xmlns:sodipodi="http://sodipodi.sourceforge.net/DTD/sodipodi-0.dtd"
   xmlns:inkscape="http://www.inkscape.org/namespaces/inkscape"
   width="198.4375mm"
   height="198.4375mm"
   viewBox="0 0 198.4375 198.4375"
   version="1.1"
   id="svg1989"
   sodipodi:docname="flickr.svg"
   inkscape:version="0.92.2 5c3e80d, 2017-08-06">
  <defs
     id="defs1983" />
  <sodipodi:namedview
     id="base"
     pagecolor="#ffffff"
     bordercolor="#666666"
     borderopacity="1.0"
     inkscape:pageopacity="0.0"
     inkscape:pageshadow="2"
     inkscape:zoom="0.49497475"
     inkscape:cx="54.815487"
     inkscape:cy="376.59474"
     inkscape:document-units="mm"
     inkscape:current-layer="g1968"
     showgrid="false"
     fit-margin-top="0"
     fit-margin-left="0"
     fit-margin-right="0"
     fit-margin-bottom="0"
     inkscape:window-width="1366"
     inkscape:window-height="709"
     inkscape:window-x="0"
     inkscape:window-y="0"
     inkscape:window-maximized="1"
     inkscape:pagecheckerboard="true"
     inkscape:measure-start="780.848,350.523"
     inkscape:measure-end="750.038,379.817"
     showguides="true"
     inkscape:guide-bbox="true" />
  <metadata
     id="metadata1986">
    <rdf:RDF>
      <cc:Work
         rdf:about="">
        <dc:format>image/svg+xml</dc:format>
        <dc:type
           rdf:resource="http://purl.org/dc/dcmitype/StillImage" />
        <dc:title></dc:title>
      </cc:Work>
    </rdf:RDF>
  </metadata>
  <g
     inkscape:label="Layer 1"
     inkscape:groupmode="layer"
     id="layer1"
     transform="translate(-340.85244,-74.118307)">
    <g
       transform="matrix(3.3072918,0,0,3.3072918,101.8839,79.579908)"
       style="fill:none;fill-rule:evenodd;stroke:none;stroke-width:1"
       id="g1968">
      <path
         style="fill:#ffffff;fill-opacity:1;fill-rule:evenodd;stroke:none;stroke-width:12.50000095"
         d="M 375 0 C 167.89319 0 -1.8503717e-17 167.89319 0 375 C 0 582.10681 167.89319 750 375 750 C 582.10674 750 750 582.10681 750 375 C 750 167.89319 582.10674 -5.5511151e-17 375 0 z M 240 262.5 A 112.5 112.5 0 0 1 352.5 375 A 112.5 112.5 0 0 1 240 487.5 A 112.5 112.5 0 0 1 127.5 375 A 112.5 112.5 0 0 1 240 262.5 z M 510 262.5 A 112.5 112.5 0 0 1 622.5 375 A 112.5 112.5 0 0 1 510 487.5 A 112.5 112.5 0 0 1 397.5 375 A 112.5 112.5 0 0 1 510 262.5 z "
         transform="matrix(0.08,0,0,0.08,72.255052,-1.6513817)"
         id="path120-3" />
      <g
         transform="translate(-0.59999466)"
         id="g1961" />
    </g>
  </g>
</svg>
