<?xml version="1.0" encoding="UTF-8" standalone="no"?>
<svg
   xmlns:dc="http://purl.org/dc/elements/1.1/"
   xmlns:cc="http://creativecommons.org/ns#"
   xmlns:rdf="http://www.w3.org/1999/02/22-rdf-syntax-ns#"
   xmlns:svg="http://www.w3.org/2000/svg"
   xmlns="http://www.w3.org/2000/svg"
   xmlns:sodipodi="http://sodipodi.sourceforge.net/DTD/sodipodi-0.dtd"
   xmlns:inkscape="http://www.inkscape.org/namespaces/inkscape"
   height="100"
   version="1.1"
   viewBox="0 0 100 100"
   width="100"
   id="svg126"
   sodipodi:docname="icta-twitter.svg"
   inkscape:export-filename="/home/joaquim/Downloads/whatsapp.png"
   inkscape:export-xdpi="152.39999"
   inkscape:export-ydpi="152.39999"
   inkscape:version="0.92.2 5c3e80d, 2017-08-06">
  <metadata
     id="metadata130">
    <rdf:RDF>
      <cc:Work
         rdf:about="">
        <dc:format>image/svg+xml</dc:format>
        <dc:type
           rdf:resource="http://purl.org/dc/dcmitype/StillImage" />
        <dc:title></dc:title>
      </cc:Work>
    </rdf:RDF>
  </metadata>
  <sodipodi:namedview
     pagecolor="#ffffff"
     bordercolor="#666666"
     borderopacity="1"
     objecttolerance="10"
     gridtolerance="10"
     guidetolerance="10"
     inkscape:pageopacity="0"
     inkscape:pageshadow="2"
     inkscape:window-width="1366"
     inkscape:window-height="709"
     id="namedview128"
     showgrid="false"
     fit-margin-top="0"
     fit-margin-left="0"
     fit-margin-right="0"
     fit-margin-bottom="0"
     inkscape:zoom="2.7812867"
     inkscape:cx="-55.056569"
     inkscape:cy="40.409954"
     inkscape:window-x="0"
     inkscape:window-y="0"
     inkscape:window-maximized="1"
     inkscape:current-layer="g3669" />
  <defs
     id="defs118" />
  <g
     id="black"
     style="fill:none;fill-rule:evenodd;stroke:none;stroke-width:1"
     transform="translate(176.94915,-46.440678)">
    <g
       id="whatsapp">
      <g
         id="g3669"
         transform="matrix(1.6666667,0,0,1.6666667,-176.94915,46.440678)">
        <path
           style="fill:#238f46;fill-opacity:1"
           id="path120"
           d="M 30,60 C 46.568543,60 60,46.568543 60,30 60,13.431457 46.568543,0 30,0 13.431457,0 0,13.431457 0,30 0,46.568543 13.431457,60 30,60 Z"
           inkscape:connector-curvature="0" />
      </g>
      <g
         transform="matrix(0.96615402,0,0,0.96615402,-182.77546,37.905754)"
         id="g6"
         style="fill:#ffffff">
        <path
           inkscape:connector-curvature="0"
           d="m 90.461,40.316 c -2.404,1.066 -4.99,1.787 -7.702,2.109 2.769,-1.659 4.894,-4.284 5.897,-7.417 -2.591,1.537 -5.462,2.652 -8.515,3.253 -2.446,-2.605 -5.931,-4.233 -9.79,-4.233 -7.404,0 -13.409,6.005 -13.409,13.409 0,1.051 0.119,2.074 0.349,3.056 -11.144,-0.559 -21.025,-5.897 -27.639,-14.012 -1.154,1.98 -1.816,4.285 -1.816,6.742 0,4.651 2.369,8.757 5.965,11.161 -2.197,-0.069 -4.266,-0.672 -6.073,-1.679 -0.001,0.057 -0.001,0.114 -0.001,0.17 0,6.497 4.624,11.916 10.757,13.147 -1.124,0.308 -2.311,0.471 -3.532,0.471 -0.866,0 -1.705,-0.083 -2.523,-0.239 1.706,5.326 6.657,9.203 12.526,9.312 -4.59,3.597 -10.371,5.74 -16.655,5.74 -1.08,0 -2.15,-0.063 -3.197,-0.188 5.931,3.806 12.981,6.025 20.553,6.025 24.664,0 38.152,-20.432 38.152,-38.153 0,-0.581 -0.013,-1.16 -0.039,-1.734 2.622,-1.89 4.895,-4.251 6.692,-6.94 z"
           style="fill:#ffffff"
           id="path4" />
      </g>
    </g>
  </g>
</svg>
